<?xml version="1.0" encoding="utf-8"?>
<!-- Generator: Adobe Illustrator 27.9.0, SVG Export Plug-In . SVG Version: 6.00 Build 0)  -->
<svg version="1.1" id="Layer_1" xmlns="http://www.w3.org/2000/svg" xmlns:xlink="http://www.w3.org/1999/xlink" x="0px" y="0px"
	 viewBox="0 0 612 572.924" style="enable-background:new 0 0 612 572.924;" xml:space="preserve">
<style type="text/css">
	.st0{fill:url(#SVGID_1_);}
</style>
<linearGradient id="SVGID_1_" gradientUnits="userSpaceOnUse" x1="27.1871" y1="282.0391" x2="565.0834" y2="282.0391">
	<stop  offset="0" style="stop-color:#D1E5A5"/>
	<stop  offset="1" style="stop-color:#F7D890"/>
</linearGradient>
<path class="st0" d="M280.316,329.304c-0.854,2.316-1.512,4.728-2.606,6.925c-1.685,3.383-5.146,4.617-8.339,3.283
	c-3.192-1.334-3.853-3.7-2.456-7.873c0.859-2.565,1.438-5.224,2.143-7.84c0.198,0.044,0.396,0.088,0.594,0.132
	c-0.066-0.075-0.168-0.224-0.191-0.213c-0.12,0.059-0.22,0.159-0.327,0.245c-6.584,3.54-13.008,7.432-19.801,10.51
	c-5.566,2.521-11.492,4.372-17.408,5.96c-4.901,1.316-9.948,0.777-14.692-1.234c-3.339-1.415-4.794-4.577-3.715-7.673
	c1.211-3.473,4.154-4.788,8.002-3.576c3.869,1.218,4.721,0.664,4.957-3.267c0.04-0.662,0.021-1.335-0.043-1.996
	c-0.646-6.743-1.306-13.484-1.999-20.608c-1.327-0.115-2.953-0.325-4.583-0.388c-45.461-1.771-90.923-1.827-136.384-0.039
	c-8.149,0.321-16.304,0.651-24.434,1.269c-7.372,0.561-14.428,2.452-20.832,6.341c-0.71,0.431-1.428,0.883-2.199,1.177
	c-3.022,1.153-6.589-0.215-8.118-3.056c-1.354-2.515-0.797-4.511,2.223-6.798c8.399-6.359,18.153-8.964,28.442-9.635
	c37.922-2.473,75.898-2.735,113.878-2.28c18.319,0.219,36.635,0.796,54.948,1.338c2.837,0.084,5.017-0.548,7.186-2.488
	c3.421-3.058,7.481-4.995,12.28-4.651c5.363,0.384,9.126,5.119,8.286,10.376c-0.848,5.309-5.691,7.749-10.437,5.231
	c-0.847-0.449-1.616-1.048-2.48-1.617c-4.573,3.374-5.863,7.907-5.332,12.912c0.559,5.278,1.649,10.501,2.633,16.524
	c9.811-3.474,17.697-9.926,26.544-14.516C270.809,317.621,275.562,323.462,280.316,329.304z M232.045,525.637
	c112.053,29.149,225.836-19.996,282.575-118.128c13.732-23.751,23.239-49.08,28.691-76.571c-2.244,0.125-3.637,0.202-4.921,0.274
	c-22.055,110.935-120.981,197.224-241.469,197.682C179.527,529.34,79.008,446.986,54.583,334.775
	c-1.348,0.061-2.762,0.124-4.226,0.19C63.504,408.252,124.86,497.754,232.045,525.637z M507.182,144.891
	c-1.586-2.53-3.059-5.141-4.776-7.579C449.46,62.136,360.567,21.075,267.077,31.784c-43.99,5.039-84.024,20.448-119.513,46.852
	c-59.731,44.441-93.45,104.076-102.202,177.915c-0.42,3.545-0.39,7.143-0.565,10.636c4.155,0.773,4.918-0.993,5.272-3.999
	c1.205-10.242,2.018-20.599,4.2-30.647c15.531-71.554,54.704-126.567,117.643-163.846c49.472-29.303,103.329-39.029,160.194-30.86
	c53.506,7.686,99.378,31.077,137.923,68.891c11.92,11.694,22.316,24.684,31.942,38.305
	C503.707,144.984,505.445,144.937,507.182,144.891z M294.696,328.005c1.414,2.346,2.958,4.614,4.445,6.916
	c2.657-0.029,5.342,0.18,7.968-0.125c20.965-2.434,40.577-8.946,58.563-20.045c5.934-3.662,12.245-6.167,19.121-6.734
	c10.943-0.903,21.915-1.59,32.889-1.969c46.458-1.606,92.915-1.446,139.362,0.544c1.154,0.049,2.337,0.008,3.473-0.188
	c2.854-0.493,4.323-2.339,4.549-5.154c0.221-2.755-1.527-5.372-4.171-6.093c-1.265-0.345-2.635-0.371-3.961-0.414
	c-11.651-0.383-23.302-0.741-34.954-1.098c-43.142-1.321-86.262-0.417-129.366,1.471c-12.127,0.531-23.546,3.265-34.061,9.967
	c-13.315,8.487-28.049,13.805-43.597,16.599c-7.863,1.413-15.825,4.279-23.739,0.04C292.371,323.819,293.46,325.956,294.696,328.005
	z M300.041,281.936c0.337-0.571,0.74-1.113,1-1.718c14.751-34.238,29.492-68.48,44.219-102.728c0.456-1.061,0.902-2.171,1.078-3.3
	c0.501-3.208-1.302-6.151-4.201-7.101c-2.924-0.958-4.99,0.108-6.732,3.52c-0.453,0.888-0.818,1.822-1.215,2.738
	c-11.444,26.42-22.943,52.818-34.304,79.274c-4.459,10.383-8.609,20.898-12.9,31.352
	C291.112,281.847,295.571,281.856,300.041,281.936z M350.98,112.777c3.386-6.586,5.025-13.559,8.381-19.712
	c0.439,0.133,0.878,0.267,1.317,0.4c-1.025,7.318-2.05,14.637-3.094,22.097c2.517,0.98,4.614,1.796,6.721,2.615
	c4.679-6.201,8.219-12.55,12.724-18.155c0.462,0.25,0.924,0.499,1.386,0.749c-2.489,6.553-4.978,13.107-7.568,19.926
	c2.156,0.866,3.805,1.527,5.936,2.383c4.508-11.49,8.897-22.678,13.412-34.186c-3.744-1.408-6.789-2.553-9.95-3.742
	c-2.569,3.826-4.825,7.316-7.217,10.71c-2.296,3.257-4.04,6.994-7.034,9.679c-0.445-0.196-0.889-0.392-1.334-0.588
	c1.219-8.12,2.438-16.241,3.696-24.621c-3.43-1.272-6.445-2.389-9.752-3.616c-4.526,11.515-8.834,22.475-13.371,34.019
	C347.581,111.57,349.228,112.155,350.98,112.777z M378.763,99.366c-0.057,0.194-0.426,0.297-0.658,0.439
	c-0.112-0.22-0.365-0.498-0.304-0.647c0.089-0.216,0.404-0.34,0.623-0.503C378.553,98.896,378.818,99.178,378.763,99.366z
	 M360.948,91.031c0.061,0.092-0.013,0.408-0.071,0.421c-0.217,0.049-0.453,0.014-0.681,0.01c0.075-0.279,0.151-0.559,0.238-0.883
	C360.621,90.735,360.83,90.853,360.948,91.031z M364.915,107.455c-0.01,0.09-0.179,0.163-0.278,0.243
	c-0.078-0.101-0.225-0.209-0.215-0.3c0.01-0.09,0.179-0.162,0.278-0.242C364.778,107.256,364.926,107.365,364.915,107.455z
	 M502.63,146.862c18.665,27.748,30.42,58.295,36.441,91.063c1.709,9.302,2.318,18.805,3.466,28.211
	c0.115,0.943,0.478,1.856,0.8,3.056c1.448-0.151,2.698-0.282,4.11-0.43c0-1.625,0.065-2.929-0.01-4.225
	c-1.707-29.573-9.15-57.741-21.008-84.786c-5.346-12.193-11.403-24.029-19.246-34.86c-1.738,0.046-3.475,0.093-5.213,0.139
	C502.184,145.644,502.278,146.339,502.63,146.862z M415.216,129.239c-0.23-2.045-0.032-3.823,0.36-5.557
	c1.026-4.542,2.052-9.088,3.247-13.587c0.64-2.407,0.298-4.201-1.99-5.487c-1.385-0.778-2.668-1.738-4.206-2.755
	c-7.333,9.978-14.388,19.579-21.611,29.407c1.949,1.364,3.394,2.375,5.165,3.614c4.511-6.068,8.83-11.877,13.15-17.687
	c0.717,1.781,0.625,3.191,0.316,4.551c-1.032,4.541-2.146,9.064-3.22,13.595c-1.576,6.648-1.575,6.652,4.215,10.269
	c0.264,0.165,0.622,0.18,1.485,0.412c7.007-9.527,14.131-19.212,21.391-29.083c-1.992-1.397-3.329-2.335-4.779-3.351
	C423.607,118.408,420.828,125.001,415.216,129.239z M415.091,130.829c-0.041,0.184-0.339,0.311-0.522,0.464
	c-0.082-0.261-0.257-0.539-0.216-0.779c0.03-0.174,0.345-0.3,0.542-0.454C414.974,130.333,415.14,130.605,415.091,130.829z
	 M233.797,91.358c1.862,0.788,3.003,1.925,4.029,3.159c3.4,4.093,6.965,8.072,10.061,12.387c2.034,2.835,4.167,3.448,7.162,2.05
	c1.017-0.475,2.064-0.885,3.554-1.518c-3.394-11.619-6.718-22.999-10.166-34.804c-2.245,0.709-3.898,1.23-5.843,1.845
	c1.987,7.25,3.869,14.115,5.751,20.98c-0.348,0.139-0.696,0.278-1.044,0.417c-1.092-1.194-2.234-2.347-3.268-3.589
	c-3.404-4.089-6.833-8.161-10.121-12.343c-1.431-1.819-2.975-2.509-5.167-1.654c-1.492,0.582-3.013,1.088-4.932,1.776
	c3.455,11.808,6.789,23.2,10.213,34.902c2.231-0.653,3.91-1.144,5.999-1.756C237.878,105.68,235.838,98.519,233.797,91.358z
	 M464.97,173.089c0.168,0.166,0.336,0.332,0.504,0.498c-0.492,0.696-0.984,1.391-1.475,2.087
	c-4.337,6.244-8.675,12.487-13.159,18.942c1.442,2.263,2.821,4.427,4.386,6.885c10.665-6.408,20.849-12.527,31.332-18.826
	c-1.237-1.929-2.181-3.403-3.324-5.185c-6.455,3.744-12.588,7.301-18.721,10.858c-0.377,0.092-0.754,0.185-1.131,0.277
	c0.054-0.389,0.108-0.779,0.161-1.168c3.867-5.39,7.574-10.907,11.669-16.119c2.131-2.712,2.246-4.932,0.097-7.464
	c-0.812-0.957-1.55-1.975-2.419-3.09c-10.495,6.336-20.646,12.465-31.052,18.747c1.345,2.062,2.299,3.525,3.41,5.228
	c3.218-1.906,6.041-3.605,8.889-5.258c2.866-1.663,5.757-3.282,8.637-4.92C463.506,174.083,464.238,173.586,464.97,173.089z
	 M163.779,152.931c-3.259-6.637-8.715-11.248-15.372-14.299c-5.891-2.7-11.11-1.55-14.866,2.879
	c-3.782,4.46-4.124,9.809-0.66,15.174c3.589,5.558,8.462,9.766,14.549,12.412c1.789,0.778,3.798,1.051,4.738,1.3
	C161.976,170.32,167.751,161.019,163.779,152.931z M137.514,150.592c-1.807-3.948,1.504-7.754,5.665-6.468
	c6.737,2.082,11.924,6.527,14.912,12.949c1.731,3.72-1.227,7.169-5.806,6.618C146.125,161.291,140.554,157.233,137.514,150.592z
	 M283.198,292.985c4.022,4.754,8.045,9.508,12.067,14.262c3.699-2.613,6.857-6.241,11.5-6.572c1.389,1.932,2.287,3.798,3.722,5.048
	c2.902,2.527,7.066,1.642,8.395-1.502c3.609-8.539-2.903-17.235-12.069-15.993c-2.113,0.286-4.153,1.119-6.227,1.695
	c-1.021,0.284-2.044,0.556-3.741,1.016c1.233-3.473,2.214-6.238,3.196-9.003c-4.47-0.08-8.929-0.089-13.054,2.037
	C285.724,286.977,284.461,289.981,283.198,292.985z M484.761,221.666c-2.038,0.657-3.687,1.189-5.299,1.709
	c0.186,1.686,0.325,2.951,0.48,4.36c-1.762,0.626-3.306,1.217-4.879,1.715c-0.767,0.243-1.59,0.311-2.326,0.447
	c-2.538-4.345-2.461-6.789,1.205-9.015c3.209-1.949,6.875-3.302,10.501-4.373c5.649-1.669,12.846,1.044,11.956,8.958
	c-0.051,0.45,0.196,0.934,0.398,1.805c1.652,0.115,3.347,0.234,4.99,0.348c1.936-12.325-5.839-20.266-17.386-18.34
	c-5.304,0.885-10.341,2.617-14.653,5.97c-3.499,2.721-5.549,6.25-5.002,10.808c0.547,4.559,2.399,8.545,5.856,11.915
	c5.818-1.889,11.472-3.724,17.552-5.698C486.993,228.651,485.954,225.398,484.761,221.666z M356.844,463.992
	c-0.062,5.873,1.994,11.118,5.083,15.962c5.664,8.881,15.386,9.972,22.907,2.555c0.78-0.769,1.448-2.484,1.129-3.397
	c-1.795-5.14-3.907-10.169-6.086-15.679c-3.668,1.446-6.827,2.692-10.286,4.055c0.755,1.98,1.329,3.488,1.923,5.046
	c1.637-0.178,3.027-0.329,4.663-0.506c0.885,2.609,1.661,4.898,2.403,7.084c-4.719,2.644-6.955,2.554-9.427-1.109
	c-2.014-2.985-3.773-6.369-4.675-9.829c-1.674-6.42-0.265-12.6,8.635-12.636c0.264-0.001,0.526-0.328,1.073-0.692
	c0-1.396,0-2.979,0-4.515C364.37,448.565,356.945,454.513,356.844,463.992z M134.98,206.199c1.21-2.295,2.108-3.996,2.931-5.557
	c-3.388-3.945-9.726-3.855-11.918-10.083c6.166,0.65,11.39,1.201,16.658,1.756c1.07-2.092,1.952-3.816,3.125-6.11
	c-6.39-0.778-12.107-1.725-17.86-2.077c-3.251-0.199-5.131-1.551-6.708-4.199c-2.188-3.674-4.679-7.167-7.13-10.873
	c-4.107,5.468-4.092,5.457-0.57,10.541c1.994,2.878,3.932,5.796,5.895,8.696c-0.294,0.29-0.588,0.58-0.883,0.87
	c-4.013-2.129-8.026-4.257-12.418-6.587c-1.146,2.093-2.071,3.783-3.248,5.933C113.668,194.465,124.19,200.258,134.98,206.199z
	 M174.906,454.121c2.559,1.764,5.068,3.494,7.567,5.217c-1.101,3.32-2.019,6.087-2.964,8.939c1.93,1.25,3.429,2.222,5.538,3.588
	c4.394-12.043,8.628-23.65,12.959-35.521c-2.745-1.815-5.166-3.416-7.785-5.149c-9.349,8.5-18.407,16.736-27.881,25.349
	c1.999,1.414,3.571,2.527,5.429,3.841C170.358,458.113,172.461,456.267,174.906,454.121z M189.656,440.189
	c0.014,0.423,0.027,0.846,0.041,1.269c-1.468,3.83-2.939,7.66-4.616,12.026c-2.052-1.356-3.513-2.322-5.713-3.776
	c3.454-3.208,6.528-6.063,9.603-8.918C189.199,440.59,189.427,440.39,189.656,440.189z M401.909,431.076
	c-2.789,2.003-5.156,3.702-7.593,5.452c4.369,11.92,8.575,23.397,12.953,35.341c2.185-1.46,3.782-2.526,5.359-3.58
	c-0.229-1.056-0.309-1.712-0.514-2.326c-2.513-7.524-2.519-7.525,4.532-11.21c0.278-0.145,0.634-0.143,1.118-0.243
	c2.159,1.855,4.395,3.775,6.798,5.839c1.81-1.283,3.387-2.4,5.411-3.834C420.393,447.834,411.216,439.514,401.909,431.076z
	 M412.929,449.481c-1.993,1.412-3.532,2.503-5.671,4.019c-1.683-4.395-3.153-8.23-4.622-12.065c-0.003-0.423-0.006-0.847-0.009-1.27
	c0.234,0.199,0.468,0.398,0.702,0.597C406.381,443.535,409.434,446.307,412.929,449.481z M304.967,103.947
	c2.603,0.386,4.502,0.667,6.304,0.934c0.481-0.796,0.786-1.187,0.974-1.628c3.234-7.581,3.23-7.583,11.862-5.618
	c0.504,2.858,1.039,5.893,1.617,9.169c2.122,0.116,4.042,0.22,6.412,0.349c-1.503-12.702-2.939-24.845-4.407-37.253
	c-3.187-0.415-5.945-0.774-9.225-1.201C313.904,80.675,309.525,92.078,304.967,103.947z M323.761,90.777
	c-2.196-0.236-4.135-0.445-6.64-0.714c1.691-4.802,3.155-8.963,4.62-13.124c0.324,0.093,0.648,0.186,0.972,0.279
	C323.044,81.49,323.374,85.762,323.761,90.777z M325.283,491.182c1.65-1.733,5.399-1.466,8.231-2.078
	c1.537,3.258,2.791,5.914,4.149,8.793c2.144-0.424,4.033-0.798,6.41-1.268c-5.021-11.867-9.84-23.253-14.724-34.795
	c-3.262,0.535-5.996,0.983-9.124,1.496c-1.073,12.548-2.125,24.853-3.233,37.814c2.694-0.531,4.579-0.902,6.397-1.261
	C323.974,496.684,323.598,492.951,325.283,491.182z M331.479,483.088c-2.255,0.357-4.049,0.642-6.08,0.963c0-4.838,0-9.103,0-13.367
	c0.386-0.056,0.772-0.112,1.158-0.168C328.11,474.481,329.662,478.447,331.479,483.088z M210.023,484.173
	c2.968,1.162,5.386,2.108,8.116,3.177c7.256-10.295,14.298-20.287,21.632-30.693c-2.534-1.01-4.327-1.724-6.391-2.547
	c-4.921,7.265-9.677,14.284-14.432,21.304c-0.365-0.179-0.73-0.358-1.094-0.537c1.396-8.447,2.792-16.894,4.201-25.422
	c-2.155-0.822-3.825-1.46-6.334-2.417C213.752,459.859,211.899,471.936,210.023,484.173z M122.659,236.919
	c5.526-2.764,5.687-13.83,0.408-17.298c-4.558-2.995-9.301-3.396-14.025-0.198c-1.788,1.21-3.531,2.504-5.405,3.564
	c-2.135,1.207-4.569,0.989-5.801-0.989c-0.745-1.197-0.173-3.344,0.124-5.008c0.157-0.879,0.991-1.637,1.743-2.793
	c-1.484-1.174-2.824-2.234-4.495-3.555c-1.417,2.062-2.772,3.565-3.597,5.317c-2.999,6.37-0.314,12.035,6.413,14.049
	c3.784,1.133,7.206,0.493,10.46-1.647c1.939-1.275,3.827-2.851,5.977-3.502c1.47-0.445,3.951-0.074,4.881,0.94
	c0.909,0.991,0.884,3.398,0.425,4.931c-0.496,1.657-1.968,3.023-3.74,5.55C118.704,236.595,121.142,237.678,122.659,236.919z
	 M279.692,500.865c3.519,1.995,10.531,1.559,13.321-0.8c3.02-2.554,4.491-8.249,2.662-12.441c-0.955-2.19-2.819-4.023-4.443-5.867
	c-1.198-1.36-3.15-2.241-3.895-3.762c-0.78-1.593-1.151-3.973-0.489-5.475c0.43-0.975,3.008-1.2,4.664-1.368
	c1.032-0.104,2.138,0.526,3.483,0.902c0.732-1.694,1.358-3.145,2.224-5.15c-2.381-0.784-4.327-1.738-6.37-2.041
	c-7.196-1.066-11.881,3.268-11.682,10.559c0.102,3.736,1.756,6.662,4.527,9.079c1.623,1.416,3.606,2.706,4.563,4.511
	c0.805,1.518,1.006,4.042,0.248,5.47c-0.542,1.021-3.133,1.369-4.771,1.281c-1.704-0.092-3.361-1.068-5.453-1.804
	C278.334,496.607,276.643,499.136,279.692,500.865z M290.378,320.886c-0.468-0.166-1.104-0.192-1.38-0.52
	c-4.335-5.165-8.624-10.369-12.924-15.565c-3.34,2.326-6.68,4.653-10.019,6.979c4.754,5.841,9.507,11.682,14.261,17.523
	c0.75,0.156,1.723,0.064,2.216,0.506c4.766,4.281,10.388,5.638,16.61,5.111c-1.487-2.302-3.031-4.57-4.445-6.916
	c-1.235-2.049-2.325-4.185-3.479-6.283C290.937,321.443,290.658,321.165,290.378,320.886z M280.223,67.972
	c-2.397,0.214-4.285,0.382-6.711,0.598c0.832,12.375,1.63,24.232,2.459,36.554c5.748-0.441,10.805-0.829,16.212-1.244
	c-0.184-2.171-0.318-3.749-0.478-5.631c-3.118,0-5.884,0-9.223,0C281.705,87.836,280.979,78.103,280.223,67.972z M182.536,144.853
	c4.594-3.455,8.658-6.511,13.044-9.81c-1.479-1.793-2.57-3.116-3.718-4.508c-2.726,1.887-4.994,3.457-7.5,5.192
	c-6.303-8.256-12.328-16.146-18.495-24.223c-1.88,1.429-3.313,2.518-5.393,4.099C167.978,125.552,175.146,135.055,182.536,144.853z
	 M295.265,307.247c-4.022-4.754-8.045-9.508-12.067-14.262c-0.901,1.716-2.065,3.349-2.642,5.168
	c-0.859,2.712-2.084,5.038-4.482,6.648c4.3,5.195,8.589,10.399,12.924,15.565c0.276,0.328,0.912,0.354,1.38,0.52
	C289.824,315.558,291.295,310.955,295.265,307.247z M199.417,90.222c-2.156,1.224-3.786,2.149-5.599,3.178
	c5.744,10.962,11.212,21.396,16.868,32.191c1.963-0.954,3.556-1.728,5.822-2.829C210.687,111.68,205.153,101.142,199.417,90.222z
	 M457.275,139.544c-1.798-1.691-3.152-2.965-4.718-4.438c-9.194,8.383-17.973,16.388-27.351,24.939
	c1.826,1.736,3.1,2.947,4.697,4.466C439.111,156.112,447.9,148.095,457.275,139.544z M322.073,61.92
	c0.452-1.94-0.951-3.284-2.899-3.151c-0.981,0.067-2.033,0.71-2.492,1.616c-0.459,0.906-0.03,2.186,0,2.266
	c0.977,2.584,4.077,2.171,5.245-0.332C321.995,62.173,322.045,62.039,322.073,61.92z M329.082,60.077
	c-1.948-0.088-3.145,0.331-3.171,2.823c-0.018,1.72,1.642,2.382,2.642,2.332c2.793-0.14,3.474-3.983,0.954-5.017
	C329.367,60.157,329.229,60.083,329.082,60.077z M269.057,323.798c0.198,0.044,0.396,0.088,0.594,0.132
	c-0.066-0.075-0.168-0.224-0.191-0.213c-0.12,0.059-0.22,0.159-0.327,0.245L269.057,323.798z M377.801,99.158
	c-0.061,0.149,0.191,0.427,0.304,0.647c0.232-0.143,0.601-0.245,0.658-0.439c0.055-0.188-0.21-0.47-0.337-0.711
	C378.205,98.819,377.89,98.942,377.801,99.158z M360.196,91.463c0.229,0.003,0.464,0.038,0.681-0.01
	c0.058-0.013,0.132-0.329,0.071-0.421c-0.118-0.178-0.327-0.296-0.515-0.452C360.346,90.904,360.271,91.183,360.196,91.463z
	 M364.422,107.398c-0.01,0.091,0.137,0.199,0.215,0.3c0.099-0.08,0.268-0.152,0.278-0.243c0.01-0.09-0.137-0.199-0.216-0.3
	C364.6,107.235,364.432,107.308,364.422,107.398z M414.353,130.514c-0.041,0.24,0.133,0.518,0.216,0.779
	c0.184-0.152,0.481-0.28,0.522-0.464c0.05-0.224-0.117-0.496-0.196-0.769C414.698,130.214,414.383,130.339,414.353,130.514z
	 M463.998,175.673c0.492-0.696,0.984-1.391,1.475-2.087c-0.168-0.166-0.336-0.332-0.504-0.498c-0.732,0.497-1.464,0.994-2.196,1.491
	C463.182,174.945,463.59,175.309,463.998,175.673z M463.543,187.456c-0.053,0.39-0.107,0.779-0.161,1.168
	c0.377-0.092,0.754-0.185,1.131-0.277C464.189,188.05,463.866,187.753,463.543,187.456z M189.697,441.459
	c-0.015-0.424-0.028-0.847-0.042-1.27c-0.228,0.201-0.457,0.401-0.685,0.602C189.211,441.016,189.454,441.238,189.697,441.459z
	 M403.329,440.763c-0.234-0.199-0.468-0.398-0.702-0.597c0.003,0.423,0.006,0.847,0.009,1.27
	C402.869,441.213,403.1,440.989,403.329,440.763z"/>
</svg>
