<?xml version="1.0" encoding="utf-8"?>
<!-- Generator: Adobe Illustrator 27.9.0, SVG Export Plug-In . SVG Version: 6.00 Build 0)  -->
<svg version="1.1" id="Layer_1" xmlns="http://www.w3.org/2000/svg" xmlns:xlink="http://www.w3.org/1999/xlink" x="0px" y="0px"
	 viewBox="0 0 612 236.242" style="enable-background:new 0 0 612 236.242;" xml:space="preserve">
<style type="text/css">
	.st0{fill:url(#SVGID_1_);}
</style>
<linearGradient id="SVGID_1_" gradientUnits="userSpaceOnUse" x1="32.1411" y1="99.8586" x2="570.0374" y2="99.8586">
	<stop  offset="0" style="stop-color:#D1E5A6"/>
	<stop  offset="1" style="stop-color:#F7D88F"/>
</linearGradient>
<path class="st0" d="M285.27,175.21c-0.854,2.316-1.512,4.728-2.606,6.925c-1.685,3.383-5.146,4.617-8.339,3.283
	c-3.192-1.334-3.853-3.7-2.456-7.873c0.859-2.565,1.438-5.224,2.143-7.84c0.198,0.044,0.396,0.088,0.594,0.132
	c-0.066-0.075-0.168-0.224-0.191-0.213c-0.12,0.059-0.22,0.159-0.327,0.245c-6.584,3.54-13.008,7.432-19.801,10.51
	c-5.566,2.521-11.492,4.372-17.408,5.96c-4.901,1.316-9.948,0.777-14.692-1.234c-3.339-1.415-4.794-4.577-3.715-7.673
	c1.211-3.473,4.154-4.788,8.002-3.576c3.869,1.218,4.721,0.664,4.957-3.267c0.04-0.662,0.021-1.335-0.043-1.996
	c-0.646-6.743-1.306-13.484-1.999-20.608c-1.327-0.115-2.953-0.325-4.583-0.388c-45.461-1.771-90.923-1.827-136.384-0.039
	c-8.149,0.321-16.304,0.651-24.434,1.269c-7.372,0.561-14.428,2.452-20.832,6.341c-0.71,0.431-1.428,0.883-2.199,1.177
	c-3.022,1.153-6.589-0.215-8.118-3.056c-1.354-2.515-0.797-4.511,2.223-6.798c8.399-6.359,18.153-8.964,28.442-9.635
	c37.922-2.473,75.898-2.735,113.878-2.28c18.319,0.219,36.635,0.796,54.948,1.338c2.837,0.084,5.017-0.548,7.186-2.488
	c3.421-3.058,7.481-4.995,12.28-4.651c5.363,0.384,9.126,5.119,8.286,10.376c-0.848,5.309-5.691,7.749-10.437,5.231
	c-0.847-0.449-1.616-1.048-2.48-1.617c-4.573,3.374-5.863,7.907-5.332,12.912c0.559,5.278,1.649,10.501,2.633,16.524
	c9.811-3.474,17.697-9.926,26.544-14.516C275.763,163.528,280.516,169.369,285.27,175.21z M299.65,173.912
	c1.414,2.346,2.958,4.614,4.445,6.916c2.657-0.029,5.342,0.18,7.968-0.125c20.965-2.434,40.577-8.946,58.563-20.045
	c5.934-3.662,12.245-6.167,19.121-6.734c10.943-0.903,21.915-1.59,32.889-1.969c46.458-1.606,92.915-1.446,139.362,0.544
	c1.154,0.049,2.337,0.008,3.473-0.188c2.854-0.493,4.323-2.339,4.549-5.154c0.221-2.755-1.527-5.372-4.171-6.093
	c-1.265-0.345-2.635-0.371-3.961-0.414c-11.651-0.383-23.302-0.741-34.954-1.098c-43.142-1.321-86.262-0.417-129.366,1.471
	c-12.127,0.531-23.546,3.265-34.061,9.967c-13.315,8.487-28.049,13.805-43.597,16.599c-7.863,1.413-15.825,4.279-23.739,0.04
	C297.325,169.726,298.414,171.863,299.65,173.912z M304.995,127.843c0.337-0.571,0.74-1.113,1-1.718
	c14.751-34.238,29.492-68.48,44.219-102.728c0.456-1.061,0.902-2.171,1.078-3.3c0.501-3.208-1.302-6.151-4.201-7.101
	c-2.924-0.958-4.99,0.108-6.732,3.52c-0.453,0.888-0.818,1.822-1.215,2.738c-11.444,26.42-22.943,52.818-34.304,79.274
	c-4.459,10.383-8.609,20.898-12.9,31.352C296.066,127.753,300.525,127.763,304.995,127.843z M288.152,138.892
	c4.022,4.754,8.045,9.508,12.067,14.262c3.699-2.613,6.857-6.241,11.5-6.572c1.389,1.932,2.287,3.798,3.722,5.048
	c2.902,2.527,7.066,1.642,8.395-1.502c3.609-8.539-2.903-17.235-12.069-15.993c-2.113,0.286-4.153,1.119-6.227,1.695
	c-1.021,0.284-2.044,0.556-3.741,1.016c1.233-3.473,2.214-6.238,3.196-9.003c-4.47-0.08-8.929-0.089-13.054,2.037
	C290.678,132.884,289.415,135.888,288.152,138.892z M295.332,166.793c-0.468-0.166-1.104-0.192-1.38-0.52
	c-4.335-5.165-8.624-10.369-12.924-15.565c-3.34,2.326-6.68,4.653-10.019,6.979c4.754,5.841,9.507,11.682,14.261,17.523
	c0.75,0.156,1.723,0.064,2.216,0.506c4.766,4.281,10.388,5.638,16.61,5.111c-1.487-2.302-3.031-4.57-4.445-6.916
	c-1.235-2.049-2.325-4.185-3.479-6.283C295.891,167.35,295.612,167.072,295.332,166.793z M300.219,153.154
	c-4.022-4.754-8.045-9.508-12.067-14.262c-0.901,1.716-2.065,3.349-2.642,5.168c-0.859,2.712-2.084,5.038-4.482,6.648
	c4.3,5.195,8.589,10.399,12.924,15.565c0.276,0.328,0.912,0.354,1.38,0.52C294.778,161.464,296.249,156.861,300.219,153.154z"/>
</svg>
